<?xml version="1.0" encoding="utf-8"?>
<!-- Generator: Adobe Illustrator 25.2.0, SVG Export Plug-In . SVG Version: 6.00 Build 0)  -->
<svg version="1.1" id="Layer_1" xmlns="http://www.w3.org/2000/svg" xmlns:xlink="http://www.w3.org/1999/xlink" x="0px" y="0px"
	 viewBox="0 0 42 42" style="enable-background:new 0 0 42 42;" xml:space="preserve">
<style type="text/css">
	.st0{fill-rule:evenodd;clip-rule:evenodd;fill:#FFFFFF;}
</style>
<path class="st0" d="M21,26.6l10.4,10.6c1,1.1,1.7,1.1,2.8,0l2.1-2.1c1-1,1.1-1.7,0-2.8L25.2,21l11-11.2c1-1.1,1-1.8,0-2.8l-2.1-2.1
	c-1.1-1.1-1.7-1.1-2.8,0L21,15.4L10.6,4.8c-1-1.1-1.7-1.1-2.8,0L5.8,6.9c-1,1.1-1,1.8,0,2.8l11,11.2l-11,11.2c-1.1,1.1-1,1.8,0,2.8
	l2.1,2.1c1,1.1,1.7,1.1,2.8,0L21,26.6z"/>
</svg>
