<?xml version="1.0" standalone="no"?>
<!DOCTYPE svg PUBLIC "-//W3C//DTD SVG 20010904//EN"
 "http://www.w3.org/TR/2001/REC-SVG-20010904/DTD/svg10.dtd">
<svg version="1.0" xmlns="http://www.w3.org/2000/svg"
 width="1279.000000pt" height="1280.000000pt" viewBox="0 0 1279.000000 1280.000000"
 preserveAspectRatio="xMidYMid meet">
<metadata>
Created by potrace 1.15, written by Peter Selinger 2001-2017
</metadata>
<g transform="translate(0.000000,1280.000000) scale(0.100000,-0.100000)"
fill="#000000" stroke="none">
<path d="M4100 12109 c-730 -41 -1446 -314 -2030 -772 -221 -174 -481 -438
-646 -658 -618 -819 -861 -1830 -683 -2839 226 -1283 1148 -2361 2390 -2795
139 -48 416 -119 564 -144 255 -42 306 -46 625 -46 205 0 348 5 410 13 498 69
892 191 1286 397 l121 63 31 -25 c18 -13 30 -28 27 -33 -3 -5 0 -12 6 -16 8
-4 9 -3 5 4 -12 19 3 14 47 -17 177 -121 407 -174 647 -148 l55 6 -55 -13
c-47 -12 -50 -14 -22 -15 41 -1 204 -63 254 -96 21 -14 40 -25 43 -25 3 0 35
-23 70 -51 36 -28 65 -47 65 -43 0 5 27 -18 60 -51 33 -32 57 -61 55 -64 -3
-2 10 -23 28 -45 52 -64 94 -129 143 -219 l44 -82 -5 45 c-2 25 -2 36 1 25 20
-75 49 -149 74 -189 16 -25 27 -46 25 -46 -3 0 -19 21 -36 47 -34 51 -33 48 1
-34 13 -29 26 -50 31 -47 24 14 4 -15 -38 -58 l-48 -48 1693 -1693 1692 -1692
64 64 64 64 31 -22 c17 -12 31 -25 31 -27 0 -3 -14 5 -31 17 -26 18 -33 19
-40 8 -8 -14 14 -25 66 -33 11 -1 50 -17 86 -34 70 -34 178 -62 244 -62 69 0
177 28 253 65 276 137 388 483 244 760 -15 27 -27 57 -28 65 -3 28 -23 70 -34
70 -13 0 -13 -17 0 -25 11 -7 33 -45 26 -45 -3 0 -15 14 -27 31 l-22 31 58 58
58 59 -211 218 c-180 187 -2220 2225 -2934 2932 l-238 236 -61 -60 c-34 -33
-59 -53 -57 -45 4 12 -10 21 -61 39 -238 82 -377 158 -500 275 -50 47 -42 36
33 -46 54 -60 96 -108 94 -108 -2 0 -84 82 -183 182 -99 101 -160 165 -135
143 126 -112 125 -112 67 -46 -68 77 -149 233 -176 341 -13 51 -20 67 -22 50
-2 -14 -4 52 -5 145 0 155 -3 178 -27 258 -29 94 -72 186 -119 255 -16 23 -26
47 -23 52 4 6 1 9 -5 8 -7 -2 -21 9 -33 24 l-20 27 85 168 c137 268 206 439
278 693 173 612 183 1259 29 1875 -211 838 -711 1570 -1424 2081 -208 149
-538 327 -783 423 -360 140 -728 218 -1132 241 -201 11 -197 11 -410 -1z
m1806 -2649 c305 -24 591 -97 901 -230 233 -100 553 -286 560 -325 10 -59 32
-342 33 -418 1 -425 -128 -976 -311 -1322 -48 -92 -92 -170 -99 -175 -3 -3
-27 -39 -52 -80 -26 -41 -54 -84 -62 -95 -9 -11 -47 -62 -85 -113 -91 -122
-122 -161 -212 -262 -124 -138 -172 -185 -298 -290 -30 -25 -63 -53 -73 -62
-10 -10 -22 -18 -28 -18 -6 0 -10 -4 -10 -8 0 -4 -12 -15 -27 -24 -16 -9 -38
-25 -50 -35 -32 -27 -58 -47 -76 -58 -8 -5 -55 -37 -104 -71 -144 -100 -312
-194 -418 -234 -11 -5 -40 -17 -65 -28 -48 -21 -204 -71 -305 -97 -300 -79
-659 -115 -953 -95 -241 16 -372 35 -612 90 -276 63 -636 217 -890 378 -36 23
-70 45 -75 49 -6 5 -39 28 -75 52 -36 25 -67 48 -70 51 -3 3 -25 21 -50 40
-25 19 -47 37 -50 40 -3 3 -39 34 -80 70 -94 82 -158 146 -240 240 -36 41 -67
77 -70 80 -3 3 -21 25 -40 50 -19 25 -37 47 -40 50 -4 3 -26 34 -50 70 -24 36
-46 67 -50 70 -17 14 -156 261 -208 370 -134 280 -172 389 -253 725 -46 195
-70 451 -67 712 l3 222 -30 32 c-17 17 15 -3 71 -44 376 -280 784 -453 1244
-528 99 -16 443 -16 545 0 266 42 490 123 702 255 99 61 266 184 481 355 555
440 839 570 1342 610 152 12 155 12 296 1z m2453 -4349 c56 -17 151 -66 151
-77 0 -3 -21 8 -47 23 -26 15 -81 37 -122 50 -42 12 -69 22 -59 22 9 1 43 -7
77 -18z m-1129 -166 c47 -47 82 -85 80 -85 -3 0 -43 38 -90 85 -47 47 -82 85
-80 85 3 0 43 -38 90 -85z m295 -295 c49 -49 87 -90 85 -90 -3 0 -46 41 -95
90 -49 50 -87 90 -85 90 3 0 46 -40 95 -90z m102 -137 c-3 -10 -5 -4 -5 12 0
17 2 24 5 18 2 -7 2 -21 0 -30z"/>
<path d="M7475 6650 c-8 -13 13 -60 27 -60 5 0 6 6 1 13 -4 6 -9 21 -10 31 -4
26 -9 30 -18 16z"/>
<path d="M6126 5311 c-3 -4 7 -14 22 -20 27 -13 27 -13 8 8 -22 24 -23 24 -30
12z"/>
<path d="M7650 4351 c0 -6 4 -13 10 -16 6 -3 7 1 4 9 -7 18 -14 21 -14 7z"/>
</g>
</svg>
